<?xml version="1.0" encoding="UTF-8"?>
<svg width="52px" height="52px" viewBox="0 0 52 52" version="1.1" xmlns="http://www.w3.org/2000/svg" xmlns:xlink="http://www.w3.org/1999/xlink">
    <title>Artboard</title>
    <defs>
        <polygon id="path-1" points="0.06 0.752 29.454 0.752 29.454 36.927 0.06 36.927"></polygon>
        <polygon id="path-3" points="0.06 0.752 29.454 0.752 29.454 36.927 0.06 36.927"></polygon>
    </defs>
    <g id="Artboard" stroke="none" stroke-width="1" fill="none" fill-rule="evenodd">
        <g id="Group" transform="translate(0.000000, 3.000000)">
            <path d="M39.9960481,12 L12.0039519,12 C11.9950602,37.8329296 12.0039519,37.8329296 12.0039519,39.0622083 C12.0039519,40.2191765 12.4811404,41.4444379 14.2891218,41.9204821 C16.0941392,42.3955219 22.8528281,44.0124653 24.0541971,44.2996987 C25.692248,44.6903763 25.9836985,45.8945472 26.0044459,45.9899569 L26.0044459,46 L26.0054338,45.9949784 L26.0064218,46 L26.0064218,45.9899569 C26.0271691,45.8945472 26.3166437,44.6903763 27.9537066,44.2996987 C29.1560637,44.0124653 35.9157404,42.3955219 37.7207579,41.9204821 C39.5267633,41.4444379 39.9960481,40.2191765 39.9960481,39.0622083 C39.9960481,37.8329296 40.0049398,37.8329296 39.9960481,12" id="Fill-1" fill="#FFFFFE" fill-rule="nonzero"></path>
            <path d="M22,27 L16.0308664,27 C15.4261757,27.2144155 14,27.8503937 14,29.0950939 C14,29.5084797 14.2012395,29.8137492 14.3742861,30 L18.7121157,30 L22,27" id="Fill-2" fill="#DA322A" fill-rule="nonzero"></path>
            <path d="M22,27 L16.0308664,27 C15.4261757,27.2144155 14,27.8503937 14,29.0950939 C14,29.5084797 14.2012395,29.8137492 14.3742861,30 L18.7121157,30 L22,27 Z" id="Stroke-3" stroke="#FFFFFE" stroke-width="0.058"></path>
            <polyline id="Fill-4" fill="#DA322A" fill-rule="nonzero" points="25.3655277 23.0468302 25.4984055 23.1682064 25.4994685 23.1691622 25.6334093 23.0468302 29 26 29 20 22 20 22 26 25.3655277 23.0468302"></polyline>
            <polygon id="Stroke-5" stroke="#FFFFFE" stroke-width="0.058" points="25.3655277 23.0468302 25.4984055 23.1682064 25.4994685 23.1691622 25.6334093 23.0468302 29 26 29 20 22 20 22 26"></polygon>
            <path d="M18.4489116,30 L14,30 L14,34.2909344 L14.5648166,34.2909344 L14.5648166,36 L17.0427535,36 L17.0427535,34.2429093 L19,34.2429093 L19,30.1670437 C18.7646597,30.1482513 18.5803099,30.0751697 18.4489116,30" id="Fill-6" fill="#DA322A" fill-rule="nonzero"></path>
            <path d="M18.4489116,30 L14,30 L14,34.2909344 L14.5648166,34.2909344 L14.5648166,36 L17.0427535,36 L17.0427535,34.2429093 L19,34.2429093 L19,30.1670437 C18.7646597,30.1482513 18.5803099,30.0751697 18.4489116,30 Z" id="Stroke-7" stroke="#FFFFFE" stroke-width="0.058"></path>
            <path d="M31.162201,30 C31.0070155,30.105428 30.6621587,30.2933194 30.1722593,30.2943633 C30.171245,30.2943633 30.1702307,30.2943633 30.1692165,30.2943633 C29.6854028,30.2943633 29.3719888,30.1617954 29.2208605,30.0762004 C29.0606035,30.1534447 28.7258896,30.276618 28.2319331,30.276618 C27.7623193,30.2755741 27.3971769,30.1127349 27.2186628,30.0156576 C27.0502916,30.1242171 26.6963063,30.2682672 25.9994929,30.2661795 C25.3036937,30.2682672 24.9497084,30.1242171 24.7813372,30.0156576 C24.6028231,30.1127349 24.2366664,30.2755741 23.7680669,30.276618 C23.2751247,30.276618 22.9404108,30.1524008 22.7801538,30.0762004 C22.6290254,30.1617954 22.313583,30.2943633 21.8277407,30.2943633 C21.3378413,30.2933194 20.9939988,30.105428 20.8388133,30 C20.6836278,30.0584551 20.3560139,30.1670146 20,30.2077244 L20,34.2943633 L21.4423126,34.2943633 L21.4423126,36 L24.0348238,36 L24.0348238,34.3893528 L27.9388048,34.3893528 L27.9388048,36 L30.531316,36 L30.531316,34.2943633 L32,34.2943633 L32,30.2077244 C31.6429719,30.1659708 31.3173865,30.0584551 31.162201,30" id="Fill-8" fill="#DA322A" fill-rule="nonzero"></path>
            <path d="M31.162201,30 C31.0070155,30.105428 30.6621587,30.2933194 30.1722593,30.2943633 C30.171245,30.2943633 30.1702307,30.2943633 30.1692165,30.2943633 C29.6854028,30.2943633 29.3719888,30.1617954 29.2208605,30.0762004 C29.0606035,30.1534447 28.7258896,30.276618 28.2319331,30.276618 C27.7623193,30.2755741 27.3971769,30.1127349 27.2186628,30.0156576 C27.0502916,30.1242171 26.6963063,30.2682672 25.9994929,30.2661795 C25.3036937,30.2682672 24.9497084,30.1242171 24.7813372,30.0156576 C24.6028231,30.1127349 24.2366664,30.2755741 23.7680669,30.276618 C23.2751247,30.276618 22.9404108,30.1524008 22.7801538,30.0762004 C22.6290254,30.1617954 22.313583,30.2943633 21.8277407,30.2943633 C21.3378413,30.2933194 20.9939988,30.105428 20.8388133,30 C20.6836278,30.0584551 20.3560139,30.1670146 20,30.2077244 L20,34.2943633 L21.4423126,34.2943633 L21.4423126,36 L24.0348238,36 L24.0348238,34.3893528 L27.9388048,34.3893528 L27.9388048,36 L30.531316,36 L30.531316,34.2943633 L32,34.2943633 L32,30.2077244 C31.6429719,30.1659708 31.3173865,30.0584551 31.162201,30 Z" id="Stroke-9" stroke="#FFFFFE" stroke-width="0.058"></path>
            <path d="M34.970599,27 L29,27 L32.2870854,30 L36.6267768,30 C36.7988094,29.8137492 37,29.5084797 37,29.0950939 C37,27.8503937 35.5751428,27.2144155 34.970599,27" id="Fill-10" fill="#DA322A" fill-rule="nonzero"></path>
            <path d="M34.970599,27 L29,27 L32.2870854,30 L36.6267768,30 C36.7988094,29.8137492 37,29.5084797 37,29.0950939 C37,27.8503937 35.5751428,27.2144155 34.970599,27 Z" id="Stroke-11" stroke="#FFFFFE" stroke-width="0.058"></path>
            <path d="M32,30.1670437 L32,34.2429093 L33.9309939,34.2429093 L33.9309939,36 L36.4059988,36 L36.4059988,34.2909344 L37,34.2909344 L37,30 L32.5518526,30 C32.4195256,30.0751697 32.2342678,30.1492953 32,30.1670437" id="Fill-12" fill="#DA322A" fill-rule="nonzero"></path>
            <path d="M32,30.1670437 L32,34.2429093 L33.9309939,34.2429093 L33.9309939,36 L36.4059988,36 L36.4059988,34.2909344 L37,34.2909344 L37,30 L32.5518526,30 C32.4195256,30.0751697 32.2342678,30.1492953 32,30.1670437 Z" id="Stroke-13" stroke="#FFFFFE" stroke-width="0.058"></path>
            <path d="M37.130941,35.0461132 L37.130941,36.6851362 L33.6523058,36.6851362 L33.6523058,35 L30.903779,35 L30.903779,36.6380206 L27.3955047,36.6380206 L27.3955047,35.0912239 L24.5758442,35.0912239 L24.5758442,36.6380206 L21.06757,36.6380206 L21.06757,35 L18.3170671,35 L18.3170671,36.6851362 L14.8394199,36.6851362 L14.8394199,35.0461132 L12.000988,35.0461132 C12,38.1687779 12,38.4795407 12,39.0750023 C12,40.2298369 12.4781765,41.4528388 14.283194,41.9280051 C16.0891994,42.402169 22.8478882,44.0161305 24.0502452,44.3028342 C25.6882961,44.6927914 25.9935782,46 25.9935782,46 C25.9935782,46 26.3126919,44.6927914 27.9497548,44.3028342 C29.1521118,44.0161305 35.9108006,42.402169 37.7158181,41.9280051 C39.5218235,41.4528388 40,40.2298369 40,39.0750023 C40,38.4795407 40,38.1687779 40,35.0461132 L37.130941,35.0461132" id="Fill-14" fill="#DA322A" fill-rule="nonzero"></path>
            <path d="M37.130941,35.0461132 L37.130941,36.6851362 L33.6523058,36.6851362 L33.6523058,35 L30.903779,35 L30.903779,36.6380206 L27.3955047,36.6380206 L27.3955047,35.0912239 L24.5758442,35.0912239 L24.5758442,36.6380206 L21.06757,36.6380206 L21.06757,35 L18.3170671,35 L18.3170671,36.6851362 L14.8394199,36.6851362 L14.8394199,35.0461132 L12.000988,35.0461132 C12,38.1687779 12,38.4795407 12,39.0750023 C12,40.2298369 12.4781765,41.4528388 14.283194,41.9280051 C16.0891994,42.402169 22.8478882,44.0161305 24.0502452,44.3028342 C25.6882961,44.6927914 25.9935782,46 25.9935782,46 C25.9935782,46 26.3126919,44.6927914 27.9497548,44.3028342 C29.1521118,44.0161305 35.9108006,42.402169 37.7158181,41.9280051 C39.5218235,41.4528388 40,40.2298369 40,39.0750023 C40,38.4795407 40,38.1687779 40,35.0461132 L37.130941,35.0461132 Z" id="Stroke-15" stroke="#FFFFFE" stroke-width="0.058"></path>
            <polyline id="Fill-16" fill="#DA322A" fill-rule="nonzero" points="23.3191164 17.1524409 23.3191164 17.9990551 23.9553101 18 23.9553101 17.0853543 25.5916737 17.0853543 25.5916737 17.9990551 26.4062872 17.9990551 26.4062872 17.0853543 28.0436703 17.0853543 28.0436703 17.9990551 28.6788445 17.9990551 28.6788445 17.1524409 29 17.1524409 26.0005098 15 25.9994902 15 23 17.1524409 23.3191164 17.1524409"></polyline>
            <polygon id="Stroke-17" stroke="#FFFFFE" stroke-width="0.058" points="23.3191164 17.1524409 23.3191164 17.9990551 23.9553101 18 23.9553101 17.0853543 25.5916737 17.0853543 25.5916737 17.9990551 26.4062872 17.9990551 26.4062872 17.0853543 28.0436703 17.0853543 28.0436703 17.9990551 28.6788445 17.9990551 28.6788445 17.1524409 29 17.1524409 26.0005098 15 25.9994902 15 23 17.1524409"></polygon>
            <path d="M25.501,14.757 C25.643,14.757 25.758,14.641 25.758,14.499 C25.758,14.357 25.643,14.243 25.501,14.243 C25.358,14.243 25.242,14.357 25.242,14.499 C25.242,14.641 25.358,14.757 25.501,14.757" id="Fill-18" fill="#DA322A" fill-rule="nonzero"></path>
            <path d="M25.9240175,13.3231913 C25.9240175,13.3231913 25.819214,13.3509128 25.7720524,13.3549696 C25.7563319,13.3563218 25.7344978,13.3576741 25.7135371,13.3576741 C25.7048035,13.3576741 25.6960699,13.356998 25.6882096,13.356998 C25.6917031,13.3258959 25.6960699,13.2832995 25.6960699,13.24476 C25.6943231,13.1967546 25.7633188,13.0878972 25.7633188,13.0878972 L25.8235808,13 L25.69869,13.0243408 C25.69869,13.0250169 25.5519651,13.0520622 25.4995633,13.0513861 C25.4489083,13.0520622 25.30131,13.0243408 25.30131,13.0243408 L25.1764192,13 L25.2358079,13.0878972 C25.2375546,13.0878972 25.3048035,13.1967546 25.3030568,13.24476 C25.3030568,13.2832995 25.3074236,13.3258959 25.310917,13.3576741 C25.3030568,13.3576741 25.2943231,13.3576741 25.2864629,13.3576741 C25.2655022,13.3576741 25.2436681,13.3563218 25.2270742,13.3549696 C25.180786,13.3509128 25.0751092,13.3225152 25.0751092,13.3225152 L25,13.3022312 L25,13.5138607 C25,13.5699797 25.0139738,13.68357 25.0139738,13.6842461 L25.0235808,13.7511832 L25.1004367,13.7187289 C25.0995633,13.7187289 25.180786,13.6849222 25.2200873,13.6761325 C25.2419214,13.6720757 25.2759825,13.6659905 25.3065502,13.6605815 C25.3065502,13.6673428 25.3065502,13.6741041 25.3065502,13.6815416 C25.3065502,13.7011494 25.3039301,13.7207573 25.3030568,13.7383367 C25.2978166,13.7822853 25.2323144,13.933739 25.2323144,13.9344151 L25.2026201,13.9993239 L25.2270742,13.9979716 C25.289083,13.933739 25.3877729,13.8904665 25.5004367,13.8904665 C25.6122271,13.8904665 25.7117904,13.933739 25.7737991,13.9986477 L25.7973799,14 L25.7676856,13.9344151 C25.7659389,13.933739 25.70131,13.7822853 25.6960699,13.7383367 C25.6943231,13.7207573 25.6943231,13.7011494 25.6943231,13.6815416 C25.6943231,13.6741041 25.6943231,13.6673428 25.6943231,13.6605815 C25.7231441,13.6653144 25.7563319,13.6720757 25.7781659,13.6761325 C25.819214,13.6849222 25.8995633,13.7187289 25.8995633,13.7187289 L25.9764192,13.7511832 L25.9851528,13.6842461 C25.9851528,13.68357 26,13.5699797 26,13.5138607 L26,13.3022312 L25.9240175,13.3231913" id="Fill-19" fill="#DA322A" fill-rule="nonzero"></path>
            <path d="M16.5,18.171 C16.681,18.171 16.829,18.318 16.829,18.5 C16.829,18.682 16.681,18.829 16.5,18.829 C16.318,18.829 16.171,18.682 16.171,18.5 C16.171,18.318 16.318,18.171 16.5,18.171" id="Fill-20" fill="#DA322A" fill-rule="nonzero"></path>
            <polygon id="Fill-21" fill="#DA322A" fill-rule="nonzero" points="16.335 20 16.665 20 16.665 19 16.335 19"></polygon>
            <path d="M34.4995,18.171 C34.6825,18.171 34.8295,18.318 34.8295,18.5 C34.8295,18.682 34.6825,18.829 34.4995,18.829 C34.3185,18.829 34.1705,18.682 34.1705,18.5 C34.1705,18.318 34.3185,18.171 34.4995,18.171" id="Fill-22" fill="#DA322A" fill-rule="nonzero"></path>
            <polygon id="Fill-23" fill="#DA322A" fill-rule="nonzero" points="34.3345 20 34.6655 20 34.6655 19 34.3345 19"></polygon>
            <polyline id="Fill-24" fill="#DA322A" fill-rule="nonzero" points="39.9975966 0 39.9975966 0.44459279 39.3096335 0.44459279 39.3096335 0 38.3072301 0 38.3072301 0.44459279 37.6202684 0.44459279 37.6202684 0 36.6148608 0 36.6148608 1.17957276 37.0704987 1.17957276 37.0704987 2.98598131 36.326457 2.98598131 36.326457 4.14853138 34.8874424 4.14853138 34.8874424 2.98598131 34.1423994 2.98598131 34.1423994 1.17957276 34.5980373 1.17957276 34.5980373 0 33.5946325 0 33.5946325 0.44459279 32.9066693 0.44459279 32.9066693 0 31.9032646 0 31.9032646 0.44459279 31.2153014 0.44459279 31.2153014 0 30.2118967 0 30.2118967 1.17957276 30.668536 1.17957276 30.668536 2.98598131 29.9234929 2.98598131 29.9234929 4.14853138 28.4834769 4.14853138 28.4834769 2.98598131 27.7384338 2.98598131 27.7384338 1.17957276 28.1940717 1.17957276 28.1940717 0 27.1906669 0 27.1906669 0.44459279 26.5037052 0.44459279 26.5037052 0 25.499299 0 25.499299 0.44459279 24.8123373 0.44459279 24.8123373 0 23.8089325 0 23.8089325 1.17957276 24.263569 1.17957276 24.263569 2.98598131 23.5185259 2.98598131 23.5185259 4.14853138 22.0815141 4.14853138 22.0815141 2.98598131 21.3344683 2.98598131 21.3344683 1.17957276 21.7911076 1.17957276 21.7911076 0 20.7867014 0 20.7867014 0.44459279 20.0997396 0.44459279 20.0997396 0 19.0963349 0 19.0963349 0.44459279 18.4083717 0.44459279 18.4083717 0 17.4059684 0 17.4059684 1.17957276 17.8616062 1.17957276 17.8616062 2.98598131 17.1155618 2.98598131 17.1155618 4.14853138 15.6765472 4.14853138 15.6765472 2.98598131 14.9315041 2.98598131 14.9315041 1.17957276 15.3881434 1.17957276 15.3881434 0 14.3827358 0 14.3827358 0.44459279 13.6967755 0.44459279 13.6967755 0 12.6913679 0 12.6913679 0.44459279 12.0054076 0.44459279 12.0054076 0 11 0 11 1.17957276 11.4556379 1.17957276 11.4556379 4.20260347 13.2080913 6.06408545 13.2080913 8.9829773 12.3388744 8.9829773 12.3388744 12 39.6641298 12 39.6641298 8.9829773 38.7939115 8.9829773 38.7939115 6.06408545 40.5453635 4.20260347 40.5453635 1.17957276 41 1.17957276 41 0 39.9975966 0"></polyline>
            <polygon id="Fill-25" fill="#DA322A" fill-rule="nonzero" points="29 26 35 26 35 24 29 24"></polygon>
            <polygon id="Stroke-26" stroke="#FFFFFE" stroke-width="0.058" points="29 26 35 26 35 24 29 24"></polygon>
            <polyline id="Fill-27" fill="#DA322A" fill-rule="nonzero" points="29 21 29 24 36 24 33.9923298 21 29 21"></polyline>
            <polygon id="Stroke-28" stroke="#FFFFFE" stroke-width="0.058" points="29 21 29 24 36 24 33.9923298 21"></polygon>
            <polyline id="Fill-29" fill="#DA322A" fill-rule="nonzero" points="22 21 17.0091793 21 15 24 22 24 22 21"></polyline>
            <polygon id="Stroke-30" stroke="#FFFFFE" stroke-width="0.058" points="22 21 17.0091793 21 15 24 22 24"></polygon>
            <polygon id="Fill-31" fill="#DA322A" fill-rule="nonzero" points="16 26 22 26 22 24 16 24"></polygon>
            <polygon id="Stroke-32" stroke="#FFFFFE" stroke-width="0.058" points="16 26 22 26 22 24 16 24"></polygon>
            <path d="M22,33 L21,33 L21,31.4030948 C21.1581395,30.8656351 21.8427907,30.8656351 22,31.4030948 L22,33" id="Fill-33" fill="#FFFFFE" fill-rule="nonzero"></path>
            <path d="M26,33 L25,33 L25,31.4436116 C25.1571109,30.8521295 25.8436337,30.8521295 26,31.4436116 L26,33" id="Fill-34" fill="#FFFFFE" fill-rule="nonzero"></path>
            <path d="M24,33 L23,33 L23,31.4436116 C23.156994,30.8521295 23.843006,30.8521295 24,31.4436116 L24,33" id="Fill-35" fill="#FFFFFE" fill-rule="nonzero"></path>
            <path d="M29,33 L30,33 L30,31.4030948 C29.8418605,30.8656351 29.1581395,30.8656351 29,31.4030948 L29,33" id="Fill-36" fill="#FFFFFE" fill-rule="nonzero"></path>
            <path d="M27,33 L28,33 L28,31.4436116 C27.8428891,30.8521295 27.1571109,30.8521295 27,31.4436116 L27,33" id="Fill-37" fill="#FFFFFE" fill-rule="nonzero"></path>
            <path d="M15.88,32 L15.12,32 L15.12,31.2384234 C15.24,30.9205255 15.761,30.9205255 15.88,31.2384234 L15.88,32" id="Fill-38" fill="#FFFFFE" fill-rule="nonzero"></path>
            <path d="M15.88,32 L15.12,32 L15.12,31.2384234 C15.24,30.9205255 15.761,30.9205255 15.88,31.2384234 L15.88,32 Z" id="Stroke-39" stroke="#FFFFFE" stroke-width="0.058"></path>
            <path d="M16.8805,32 L16.1195,32 L16.1195,31.2384234 C16.2405,30.9205255 16.7605,30.9205255 16.8805,31.2384234 L16.8805,32" id="Fill-40" fill="#FFFFFE" fill-rule="nonzero"></path>
            <path d="M16.8805,32 L16.1195,32 L16.1195,31.2384234 C16.2405,30.9205255 16.7605,30.9205255 16.8805,31.2384234 L16.8805,32 Z" id="Stroke-41" stroke="#FFFFFE" stroke-width="0.058"></path>
            <path d="M18.8805,32 L18.1195,32 L18.1195,31.2384234 C18.2395,30.9205255 18.7605,30.9205255 18.8805,31.2384234 L18.8805,32" id="Fill-42" fill="#FFFFFE" fill-rule="nonzero"></path>
            <path d="M18.8805,32 L18.1195,32 L18.1195,31.2384234 C18.2395,30.9205255 18.7605,30.9205255 18.8805,31.2384234 L18.8805,32 Z" id="Stroke-43" stroke="#FFFFFE" stroke-width="0.058"></path>
            <path d="M32.88,32 L32.12,32 L32.12,31.2384234 C32.239,30.9205255 32.76,30.9205255 32.88,31.2384234 L32.88,32" id="Fill-44" fill="#FFFFFE" fill-rule="nonzero"></path>
            <path d="M32.88,32 L32.12,32 L32.12,31.2384234 C32.239,30.9205255 32.76,30.9205255 32.88,31.2384234 L32.88,32 Z" id="Stroke-45" stroke="#FFFFFE" stroke-width="0.058"></path>
            <path d="M34.881,32 L34.119,32 L34.119,31.2384234 C34.241,30.9205255 34.76,30.9205255 34.881,31.2384234 L34.881,32" id="Fill-46" fill="#FFFFFE" fill-rule="nonzero"></path>
            <path d="M34.881,32 L34.119,32 L34.119,31.2384234 C34.241,30.9205255 34.76,30.9205255 34.881,31.2384234 L34.881,32 Z" id="Stroke-47" stroke="#FFFFFE" stroke-width="0.058"></path>
            <path d="M35.88,32 L35.12,32 L35.12,31.2384234 C35.241,30.9205255 35.761,30.9205255 35.88,31.2384234 L35.88,32" id="Fill-48" fill="#FFFFFE" fill-rule="nonzero"></path>
            <path d="M35.88,32 L35.12,32 L35.12,31.2384234 C35.241,30.9205255 35.761,30.9205255 35.88,31.2384234 L35.88,32 Z" id="Stroke-49" stroke="#FFFFFE" stroke-width="0.058"></path>
            <path d="M17.881,25 L17.119,25 L17.119,24.237931 C17.24,23.9206897 17.761,23.9206897 17.881,24.237931 L17.881,25" id="Fill-50" fill="#FFFFFE" fill-rule="nonzero"></path>
            <path d="M17.881,25 L17.119,25 L17.119,24.237931 C17.24,23.9206897 17.761,23.9206897 17.881,24.237931 L17.881,25 Z" id="Stroke-51" stroke="#FFFFFE" stroke-width="0.058"></path>
            <path d="M18.8805,25 L18.1195,25 L18.1195,24.237931 C18.2385,23.9206897 18.7595,23.9206897 18.8805,24.237931 L18.8805,25" id="Fill-52" fill="#FFFFFE" fill-rule="nonzero"></path>
            <path d="M18.8805,25 L18.1195,25 L18.1195,24.237931 C18.2385,23.9206897 18.7595,23.9206897 18.8805,24.237931 L18.8805,25 Z" id="Stroke-53" stroke="#FFFFFE" stroke-width="0.058"></path>
            <path d="M20.8795,25 L20.1205,25 L20.1205,24.237931 C20.2395,23.9206897 20.7605,23.9206897 20.8795,24.237931 L20.8795,25" id="Fill-54" fill="#FFFFFE" fill-rule="nonzero"></path>
            <path d="M20.8795,25 L20.1205,25 L20.1205,24.237931 C20.2395,23.9206897 20.7605,23.9206897 20.8795,24.237931 L20.8795,25 Z" id="Stroke-55" stroke="#FFFFFE" stroke-width="0.058"></path>
            <path d="M30.881,25 L30.119,25 L30.119,24.237931 C30.24,23.9206897 30.76,23.9206897 30.881,24.237931 L30.881,25" id="Fill-56" fill="#FFFFFE" fill-rule="nonzero"></path>
            <path d="M30.881,25 L30.119,25 L30.119,24.237931 C30.24,23.9206897 30.76,23.9206897 30.881,24.237931 L30.881,25 Z" id="Stroke-57" stroke="#FFFFFE" stroke-width="0.058"></path>
            <path d="M32.88,25 L32.12,25 L32.12,24.237931 C32.239,23.9206897 32.76,23.9206897 32.88,24.237931 L32.88,25" id="Fill-58" fill="#FFFFFE" fill-rule="nonzero"></path>
            <path d="M32.88,25 L32.12,25 L32.12,24.237931 C32.239,23.9206897 32.76,23.9206897 32.88,24.237931 L32.88,25 Z" id="Stroke-59" stroke="#FFFFFE" stroke-width="0.058"></path>
            <path d="M33.88,25 L33.12,25 L33.12,24.237931 C33.239,23.9206897 33.759,23.9206897 33.88,24.237931 L33.88,25" id="Fill-60" fill="#FFFFFE" fill-rule="nonzero"></path>
            <path d="M33.88,25 L33.12,25 L33.12,24.237931 C33.239,23.9206897 33.759,23.9206897 33.88,24.237931 L33.88,25 Z" id="Stroke-61" stroke="#FFFFFE" stroke-width="0.058"></path>
            <path d="M24.8805,21 L24.1195,21 L24.1195,20.237931 C24.2405,19.9206897 24.7625,19.9206897 24.8805,20.237931 L24.8805,21" id="Fill-62" fill="#FFFFFE" fill-rule="nonzero"></path>
            <path d="M24.8805,21 L24.1195,21 L24.1195,20.237931 C24.2405,19.9206897 24.7625,19.9206897 24.8805,20.237931 L24.8805,21 Z" id="Stroke-63" stroke="#FFFFFE" stroke-width="0.058"></path>
            <path d="M25.881,21 L25.119,21 L25.119,20.237931 C25.241,19.9206897 25.761,19.9206897 25.881,20.237931 L25.881,21" id="Fill-64" fill="#FFFFFE" fill-rule="nonzero"></path>
            <path d="M25.881,21 L25.119,21 L25.119,20.237931 C25.241,19.9206897 25.761,19.9206897 25.881,20.237931 L25.881,21 Z" id="Stroke-65" stroke="#FFFFFE" stroke-width="0.058"></path>
            <path d="M27.8805,21 L27.1195,21 L27.1195,20.237931 C27.2405,19.9206897 27.7595,19.9206897 27.8805,20.237931 L27.8805,21" id="Fill-66" fill="#FFFFFE" fill-rule="nonzero"></path>
            <path d="M27.8805,21 L27.1195,21 L27.1195,20.237931 C27.2405,19.9206897 27.7595,19.9206897 27.8805,20.237931 L27.8805,21 Z" id="Stroke-67" stroke="#FFFFFE" stroke-width="0.058"></path>
            <path d="M21.0276718,29.863932 C21.1650763,29.931966 21.3664122,30 21.6192748,30 C22.1459924,29.9989995 22.3912214,29.809905 22.4017176,29.801901 L22.4379771,29.7728864 L25,24 L21,29.8509255 C21.0085878,29.855928 21.0181298,29.8609305 21.0276718,29.863932" id="Fill-68" fill="#DA322A" fill-rule="nonzero"></path>
            <path d="M21.0276718,29.863932 C21.1650763,29.931966 21.3664122,30 21.6192748,30 C22.1459924,29.9989995 22.3912214,29.809905 22.4017176,29.801901 L22.4379771,29.7728864 L25,24 L21,29.8509255 C21.0085878,29.855928 21.0181298,29.8609305 21.0276718,29.863932 Z" id="Stroke-69" stroke="#FFFFFE" stroke-width="0.058"></path>
            <path d="M22.0338728,29.9013922 C22.2021076,29.9502044 22.4572826,30 22.7960105,30 C23.3221679,30.0009691 23.7320286,29.8018154 23.8133233,29.7578844 C23.8257433,29.7510507 23.8280015,29.7500745 23.8280015,29.7500745 L23.8291306,29.7490982 L25,24 L22,29.8906536 C22.0112909,29.8945585 22.0225819,29.8974873 22.0338728,29.9013922" id="Fill-70" fill="#DA322A" fill-rule="nonzero"></path>
            <path d="M22.0338728,29.9013922 C22.2021076,29.9502044 22.4572826,30 22.7960105,30 C23.3221679,30.0009691 23.7320286,29.8018154 23.8133233,29.7578844 C23.8257433,29.7510507 23.8280015,29.7500745 23.8280015,29.7500745 L23.8291306,29.7490982 L25,24 L22,29.8906536 C22.0112909,29.8945585 22.0225819,29.8974873 22.0338728,29.9013922 Z" id="Stroke-71" stroke="#FFFFFE" stroke-width="0.058"></path>
            <path d="M25.0501333,29.8792332 C25.2069333,29.9348243 25.4992,30 25.9994667,30 C26.5616,30 26.8581333,29.9194888 27,29.8591054 L25.9994667,24 L25,29.8600639 C25.0149333,29.8658147 25.032,29.872524 25.0501333,29.8792332" id="Fill-72" fill="#DA322A" fill-rule="nonzero"></path>
            <path d="M25.0501333,29.8792332 C25.2069333,29.9348243 25.4992,30 25.9994667,30 C26.5616,30 26.8581333,29.9194888 27,29.8591054 L25.9994667,24 L25,29.8600639 C25.0149333,29.8658147 25.032,29.872524 25.0501333,29.8792332 Z" id="Stroke-73" stroke="#FFFFFE" stroke-width="0.058"></path>
            <path d="M19.0095592,29.8719359 C19.1295805,29.9348944 19.3080191,30 19.5501859,30 C19.9272438,30.0020502 20.3637812,29.8687879 20.5507169,29.8005828 C20.6133829,29.7795966 20.6463091,29.7659556 20.6463091,29.7659556 L20.6824217,29.7512653 L25,24 L19,29.86564 C19.0031864,29.8677386 19.0063728,29.8698372 19.0095592,29.8719359" id="Fill-74" fill="#DA322A" fill-rule="nonzero"></path>
            <path d="M19.0095592,29.8719359 C19.1295805,29.9348944 19.3080191,30 19.5501859,30 C19.9272438,30.0020502 20.3637812,29.8687879 20.5507169,29.8005828 C20.6133829,29.7795966 20.6463091,29.7659556 20.6463091,29.7659556 L20.6824217,29.7512653 L25,24 L19,29.86564 C19.0031864,29.8677386 19.0063728,29.8698372 19.0095592,29.8719359 Z" id="Stroke-75" stroke="#FFFFFE" stroke-width="0.058"></path>
            <path d="M29.971415,29.8641359 C29.9818961,29.8611389 29.9914245,29.8561439 30,29.8511489 L26,24 L28.5640781,29.7732268 L28.6002859,29.8021978 C28.6098142,29.8101898 28.8546927,29.999001 29.3816103,30 C29.6341115,30 29.8351596,29.9320679 29.971415,29.8641359" id="Fill-76" fill="#DA322A" fill-rule="nonzero"></path>
            <path d="M29.971415,29.8641359 C29.9818961,29.8611389 29.9914245,29.8561439 30,29.8511489 L26,24 L28.5640781,29.7732268 L28.6002859,29.8021978 C28.6098142,29.8101898 28.8546927,29.999001 29.3816103,30 C29.6341115,30 29.8351596,29.9320679 29.971415,29.8641359 Z" id="Stroke-77" stroke="#FFFFFE" stroke-width="0.058"></path>
            <path d="M28.9662162,29.9014083 C28.9786036,29.8975039 28.9887387,29.8945757 29,29.8906713 L26,24 L27.1756757,29.7491391 L27.1768018,29.7501151 C27.1768018,29.7501151 27.1790541,29.7510912 27.1914414,29.7579238 C27.2725225,29.8018476 27.6801802,30.0009689 28.2060811,30 C28.5439189,30 28.7984234,29.9502125 28.9662162,29.9014083" id="Fill-78" fill="#DA322A" fill-rule="nonzero"></path>
            <path d="M28.9662162,29.9014083 C28.9786036,29.8975039 28.9887387,29.8945757 29,29.8906713 L26,24 L27.1756757,29.7491391 L27.1768018,29.7501151 C27.1768018,29.7501151 27.1790541,29.7510912 27.1914414,29.7579238 C27.2725225,29.8018476 27.6801802,30.0009689 28.2060811,30 C28.5439189,30 28.7984234,29.9502125 28.9662162,29.9014083 Z" id="Stroke-79" stroke="#FFFFFE" stroke-width="0.058"></path>
            <path d="M31.990456,29.8720477 C31.9936373,29.869951 31.9968187,29.8678542 32,29.8657574 L26,24 L30.3202545,29.7514826 L30.3563097,29.7661601 C30.3563097,29.7661601 30.3891835,29.7797892 30.4517497,29.800757 C30.6383881,29.8689026 31.0731707,30.0020484 31.4496288,30 C31.6924708,30 31.8706257,29.9349513 31.990456,29.8720477" id="Fill-80" fill="#DA322A" fill-rule="nonzero"></path>
            <path d="M31.990456,29.8720477 C31.9936373,29.869951 31.9968187,29.8678542 32,29.8657574 L26,24 L30.3202545,29.7514826 L30.3563097,29.7661601 C30.3563097,29.7661601 30.3891835,29.7797892 30.4517497,29.800757 C30.6383881,29.8689026 31.0731707,30.0020484 31.4496288,30 C31.6924708,30 31.8706257,29.9349513 31.990456,29.8720477 Z" id="Stroke-81" stroke="#FFFFFE" stroke-width="0.058"></path>
            <polyline id="Fill-82" fill="#FFFFFE" fill-rule="nonzero" points="26 22.5 25.5 23 25 22.5 25.5 22 26 22.5"></polyline>
            <g id="Group-86" transform="translate(0.000000, 17.000000)">
                <g id="Fill-83-Clipped">
                    <mask id="mask-2" fill="white">
                        <use xlink:href="#path-1"></use>
                    </mask>
                    <g id="path-1"></g>
                    <polyline id="Fill-83" fill="#DA322A" fill-rule="nonzero" mask="url(#mask-2)" points="21.567 2.422 29.454 2.422 29.454 0.822 28.507 0.822 28.507 1.719 27.146 1.719 27.146 0.752 26.278 0.752 26.278 1.719 24.742 1.719 24.742 0.752 23.875 0.752 23.875 1.719 22.514 1.719 22.514 0.822 21.567 0.822 21.567 2.422"></polyline>
                </g>
                <g id="Fill-85-Clipped">
                    <mask id="mask-4" fill="white">
                        <use xlink:href="#path-3"></use>
                    </mask>
                    <g id="path-1"></g>
                </g>
            </g>
            <path d="M39.9960481,12 L12.0039519,12 C11.9950602,37.8329296 12.0039519,37.8329296 12.0039519,39.0622083 C12.0039519,40.2191765 12.4732367,41.4444379 14.2792421,41.9204821 C16.0852475,42.3955219 22.8439363,44.008448 24.0462934,44.2996987 C25.660633,44.6903763 25.9945662,46 25.9945662,46 C25.9945662,46 26.340355,44.6903763 27.9448149,44.2996987 C29.145196,44.0064394 35.9058608,42.3955219 37.7118662,41.9204821 C39.5168837,41.4444379 39.9960481,40.2191765 39.9960481,39.0622083 C39.9960481,37.8329296 40.0049398,37.8329296 39.9960481,12 Z" id="Stroke-101" stroke="#6F8F9D" stroke-width="0.132"></path>
        </g>
    </g>
</svg>